<?xml version="1.0" standalone="no"?>
<!DOCTYPE svg PUBLIC "-//W3C//DTD SVG 20010904//EN"
 "http://www.w3.org/TR/2001/REC-SVG-20010904/DTD/svg10.dtd">
<svg version="1.0" xmlns="http://www.w3.org/2000/svg"
 width="360.000000pt" height="360.000000pt" viewBox="0 0 360.000000 360.000000"
 preserveAspectRatio="xMidYMid meet">
<metadata>
Created by potrace 1.14, written by Peter Selinger 2001-2017
</metadata>
<g transform="translate(0.000000,360.000000) scale(0.100000,-0.100000)"
fill="#000000" stroke="none">
<path d="M379 3585 c-177 -48 -310 -182 -363 -364 -14 -48 -16 -206 -16 -1415
0 -1102 3 -1372 14 -1418 43 -183 202 -340 384 -377 75 -16 2730 -15 2804 0
183 39 341 194 384 377 20 84 20 2740 0 2824 -21 90 -65 167 -136 238 -69 70
-139 110 -230 134 -77 20 -2768 21 -2841 1z"/>
</g>
</svg>
